<svg width="347" height="323" viewBox="0 0 347 323" fill="none" xmlns="http://www.w3.org/2000/svg">
<g clip-path="url(#clip0_2_1323)">
<path d="M0.697675 265.451C3.72685 263.925 5.01282 259.876 8.29918 258.82C11.6713 257.734 15.4149 259.876 18.5012 257.529C19.8443 256.502 20.8445 254.8 22.4734 254.184C23.9023 253.656 25.3883 254.243 26.76 254.683C27.9316 255.064 29.1033 255.417 30.275 255.798C34.9902 257.294 39.6768 258.761 44.3921 260.258C49.736 261.93 55.0513 263.632 60.3952 265.304C60.9096 265.48 61.1382 264.629 60.6238 264.453C50.8505 261.373 41.1057 258.292 31.3323 255.211C29.0462 254.507 26.6743 253.421 24.3024 253.128C22.6449 252.923 21.3303 253.597 20.1587 254.712C18.5298 256.267 17.301 257.705 14.9291 257.822C12.9572 257.94 11.014 257.412 9.04218 257.734C4.98423 258.38 3.72685 262.928 0.297593 264.659C-0.216795 264.952 0.211864 265.715 0.697675 265.451Z" fill="#E8E8E8"/>
<path d="M52.0507 261.754C54.0797 262.282 55.68 260.199 57.5089 259.583C59.9666 258.732 62.5957 259.084 64.8247 260.404C65.3105 260.698 65.7391 259.935 65.2533 259.641C63.3672 258.497 61.2239 258.028 59.0521 258.321C58.109 258.438 57.2232 258.703 56.3658 259.084C55.137 259.641 53.7082 261.255 52.2793 260.903C51.7364 260.756 51.5077 261.607 52.0507 261.754Z" fill="#E8E8E8"/>
<path d="M74.0837 259.553C72.169 257.94 70.34 256.209 68.6254 254.36C67.8253 253.509 67.0537 252.6 66.3107 251.69C65.882 251.162 65.4534 250.634 65.0533 250.106C64.7675 249.724 64.4817 249.343 64.2245 248.962C63.7673 248.492 63.7673 247.905 64.2531 247.26C64.596 247.407 65.139 247.054 64.8532 246.644C63.11 244.238 61.8241 241.597 60.9953 238.722C60.8239 238.898 60.6524 239.074 60.4809 239.25C61.424 239.514 62.1098 240.013 62.6242 240.834C62.91 241.304 63.653 240.893 63.3672 240.394C59.1092 232.824 55.6228 224.844 52.9937 216.541C52.7651 216.687 52.5079 216.834 52.2793 216.981C64.2531 229.069 69.6828 245.881 79.7705 259.407C80.1134 259.847 80.8564 259.407 80.5135 258.967C70.3972 245.382 64.9104 228.511 52.8794 216.365C52.5937 216.071 52.0221 216.365 52.165 216.805C54.8227 225.196 58.3091 233.235 62.6242 240.864C62.8814 240.717 63.11 240.57 63.3672 240.424C62.71 239.397 61.8526 238.722 60.7096 238.428C60.3952 238.34 60.0809 238.634 60.1952 238.957C61.0525 241.891 62.367 244.619 64.1388 247.084C64.3389 246.878 64.5389 246.673 64.7389 246.468C63.9388 246.086 63.0529 246.468 62.8528 247.436C62.5957 248.815 64.2245 250.341 64.9675 251.309C67.5109 254.566 70.3972 257.529 73.5407 260.17C73.9122 260.522 74.5123 259.905 74.0837 259.553Z" fill="#E8E8E8"/>
<path d="M71.083 241.216C65.8248 233.147 61.5668 224.492 58.4234 215.338C58.3376 215.514 58.2233 215.69 58.1376 215.866C59.1092 215.631 59.9379 216.012 60.4809 216.893C60.7667 217.391 61.4525 216.951 61.2239 216.453C56.7945 206.624 52.2793 196.384 52.5936 185.323C52.3364 185.411 52.0507 185.469 51.7935 185.557C59.4236 201.694 66.6821 218.037 73.5406 234.526C73.7407 234.996 74.4837 234.644 74.3122 234.174C73.1691 230.653 72.0546 227.103 70.9115 223.582C70.3686 221.851 69.797 220.149 69.2541 218.418C68.8826 217.274 68.0824 214.78 69.6827 214.164C69.5113 214.105 69.3684 214.017 69.1969 213.959C71.2545 218.096 73.2834 222.233 75.341 226.37C75.5982 226.868 76.3412 226.428 76.084 225.929C73.855 221.44 72.8262 216.482 73.0263 211.435C72.7405 211.465 72.4547 211.523 72.1975 211.553C78.1416 226.722 85.0286 241.509 92.773 255.798C93.0302 256.297 93.7732 255.857 93.516 255.358C85.8002 241.128 78.9417 226.428 73.0263 211.318C72.8548 210.878 72.1975 210.907 72.1975 211.435C71.9975 216.629 73.0834 221.704 75.3696 226.37C75.6268 226.223 75.8554 226.076 76.1126 225.929C74.055 221.793 72.0261 217.656 69.9685 213.519C69.8828 213.372 69.6542 213.254 69.4827 213.313C66.625 214.399 68.4539 218.594 69.0826 220.56C70.5686 225.167 72.0261 229.802 73.5121 234.409C73.7693 234.291 74.0264 234.174 74.2836 234.057C67.4251 217.568 60.1666 201.225 52.5365 185.088C52.3364 184.677 51.7363 184.912 51.7363 185.323C51.3934 196.531 55.9943 206.946 60.4809 216.893C60.7381 216.746 60.9667 216.599 61.2239 216.453C60.4809 215.25 59.2807 214.722 57.909 215.015C57.6803 215.074 57.5375 215.338 57.6232 215.543C60.7953 224.756 65.0818 233.499 70.3686 241.627C70.6544 242.125 71.3974 241.685 71.083 241.216Z" fill="#E8E8E8"/>
<path d="M14.6147 297.931C24.5024 293.031 34.9331 288.043 46.221 289.217C51.5649 289.774 56.7374 291.358 62.0527 292.063C64.739 292.415 67.4538 292.561 70.14 292.239C72.6548 291.916 75.0267 290.977 77.4844 290.42C80.6564 289.686 83.5427 290.449 86.6005 291.329C89.1152 292.033 91.6014 292.62 94.202 292.004C94.7449 291.887 94.5163 291.036 93.9733 291.153C88.7723 292.415 83.8856 288.571 78.6274 289.334C76.0269 289.715 73.5979 290.772 71.0259 291.241C68.3111 291.71 65.5391 291.652 62.7957 291.3C57.3947 290.654 52.1365 289.011 46.7068 288.395C41.3629 287.779 36.0761 288.483 30.9608 290.009C25.1311 291.769 19.6157 294.468 14.1861 297.168C13.6717 297.403 14.1289 298.165 14.6147 297.931Z" fill="#E8E8E8"/>
<path d="M72.6262 322.254C75.9697 320.787 79.2561 319.173 82.4282 317.354C84.0856 316.386 85.7145 315.388 87.3434 314.332C88.8008 313.364 90.2583 311.985 91.8586 311.28C93.659 310.518 96.3738 311.955 98.1741 312.513C100.089 313.129 102.003 313.716 103.89 314.332C107.805 315.564 111.72 316.796 115.606 318.029C116.121 318.205 116.349 317.354 115.835 317.178C111.663 315.857 107.462 314.537 103.289 313.217C101.289 312.571 99.2886 311.955 97.2882 311.31C95.7451 310.811 93.8018 309.784 92.173 310.195C90.6584 310.576 89.2867 311.926 88.0007 312.806C86.3432 313.921 84.6286 315.007 82.914 316.033C79.4561 318.058 75.884 319.877 72.1976 321.461C71.6832 321.696 72.1404 322.459 72.6262 322.254Z" fill="#E8E8E8"/>
<path d="M108.176 323.163C110.348 322.048 112.52 320.904 114.692 319.789C116.692 318.733 118.835 317.325 121.122 317.119C123.436 316.884 125.237 318.44 127.237 319.349C128.923 320.112 130.752 320.552 132.581 320.669C136.867 320.904 140.868 318.704 145.126 318.938C148.527 319.144 151.956 322.019 155.3 320.2C155.786 319.936 155.357 319.173 154.871 319.437C152.785 320.581 150.527 319.466 148.47 318.792C146.698 318.205 144.983 317.941 143.126 318.146C138.725 318.616 134.696 320.523 130.18 319.437C126.437 318.557 123.579 315.359 119.55 316.562C117.692 317.119 115.949 318.175 114.234 319.056C112.063 320.171 109.891 321.315 107.719 322.43C107.262 322.665 107.69 323.427 108.176 323.163Z" fill="#E8E8E8"/>
<path d="M124.865 316.796C123.093 315.212 121.493 313.452 120.178 311.427C119.578 310.517 119.035 309.549 118.521 308.581C118.264 308.082 118.035 307.583 117.835 307.085C117.664 306.674 117.492 306.292 117.349 305.882C117.092 305.442 117.206 305.031 117.692 304.649C117.949 304.532 118.207 304.415 118.464 304.297C115.32 299.544 113.349 294.146 112.691 288.454C112.434 288.571 112.205 288.659 111.948 288.776C112.463 289.451 112.977 290.126 113.52 290.83C113.834 291.241 114.434 290.713 114.206 290.302C109.233 281.177 106.576 270.908 106.519 260.463C106.261 260.58 106.033 260.668 105.776 260.786C107.719 262.399 109.205 264.395 110.119 266.771C110.377 266.654 110.634 266.536 110.891 266.419C108.662 261.578 108.205 256.121 109.519 250.957C109.233 250.957 108.976 250.957 108.69 250.957C114.549 268.179 120.379 285.373 126.237 302.596C126.408 303.124 127.237 302.889 127.066 302.361C124.122 293.529 122.665 284.258 122.75 274.898C122.493 275.016 122.265 275.104 122.007 275.221C123.751 276.835 124.837 278.859 125.237 281.236C125.322 281.735 126.094 281.617 126.065 281.119C125.98 279.329 125.865 277.51 125.78 275.72C125.551 275.837 125.351 275.984 125.122 276.101C126.637 277.099 126.923 279.74 127.408 281.383C127.923 283.143 128.437 284.903 128.98 286.693C130.038 290.331 131.124 293.94 132.181 297.578C134.324 304.825 136.467 312.102 138.611 319.349C138.782 319.877 139.611 319.672 139.439 319.114C137.125 311.31 134.839 303.476 132.524 295.671C131.409 291.857 130.266 288.043 129.152 284.229C128.58 282.263 128.009 280.326 127.437 278.361C127.066 277.158 126.637 276.072 125.58 275.368C125.322 275.192 124.922 275.427 124.922 275.749C125.008 277.539 125.122 279.358 125.208 281.148C125.494 281.119 125.78 281.06 126.037 281.031C125.637 278.507 124.436 276.307 122.579 274.605C122.293 274.341 121.865 274.517 121.836 274.928C121.75 284.346 123.208 293.705 126.18 302.625C126.465 302.537 126.723 302.478 127.008 302.39C121.15 285.167 115.32 267.974 109.462 250.751C109.319 250.37 108.748 250.311 108.633 250.751C107.262 256.179 107.776 261.842 110.091 266.888C110.291 267.329 111.062 267.006 110.862 266.536C109.891 264.013 108.376 261.871 106.29 260.17C106.004 259.935 105.547 260.082 105.547 260.492C105.604 271.084 108.29 281.529 113.349 290.771C113.577 290.595 113.806 290.419 114.034 290.243C113.52 289.569 113.006 288.894 112.463 288.19C112.234 287.896 111.691 288.131 111.72 288.512C112.377 294.38 114.377 299.926 117.607 304.796C117.892 305.207 118.464 304.943 118.378 304.444C118.235 303.622 117.292 303.329 116.635 303.828C115.435 304.708 116.606 306.791 117.035 307.789C118.664 311.515 121.093 314.772 124.094 317.442C124.694 317.765 125.294 317.148 124.865 316.796Z" fill="#E8E8E8"/>
<path d="M94.9735 250.986C94.602 245.47 104.347 248.639 107.062 249.167C111.52 250.018 115.949 250.869 120.407 251.72C129.295 253.421 138.211 255.123 147.098 256.825C147.641 256.942 147.87 256.091 147.327 255.974C137.125 254.008 126.951 252.072 116.749 250.106C111.748 249.138 106.747 248.169 101.746 247.231C99.9459 246.878 97.8598 246.497 96.1737 247.465C94.8877 248.169 94.0304 249.46 94.1447 250.986C94.1447 251.544 95.0306 251.544 94.9735 250.986Z" fill="#E8E8E8"/>
<path d="M141.183 255.857C144.155 256.179 145.984 253.275 148.298 251.866C150.27 250.693 151.985 251.602 154.014 252.013C156.271 252.483 158.586 252.541 160.872 252.248C161.415 252.189 161.415 251.309 160.872 251.368C158.3 251.69 155.728 251.573 153.214 250.927C151.699 250.517 150.327 250.018 148.813 250.634C146.127 251.69 144.298 255.329 141.183 254.976C140.64 254.918 140.64 255.798 141.183 255.857Z" fill="#E8E8E8"/>
<path d="M195.679 312.278C202.538 309.813 209.453 307.349 216.541 305.588C223.942 303.769 231.401 303.036 239.002 303.27C246.518 303.505 253.977 304.385 261.464 305.09C268.979 305.823 276.495 306.527 284.011 307.261C292.641 308.082 301.3 308.904 309.93 309.755C310.473 309.813 310.473 308.933 309.93 308.874C294.527 307.407 279.124 305.94 263.693 304.444C248.861 303.036 233.944 300.953 219.17 304.092C211.054 305.823 203.224 308.64 195.422 311.427C194.936 311.603 195.165 312.454 195.679 312.278Z" fill="#E8E8E8"/>
<path d="M225.885 283.407C231 282.292 235.801 280.092 240.631 278.097C245.803 275.984 251.033 274.517 256.577 274.018C262.178 273.52 267.808 273.813 273.38 274.165C278.981 274.517 284.583 274.928 290.212 275.339C296.756 275.837 303.329 276.395 309.873 276.982C310.416 277.04 310.416 276.16 309.873 276.101C298.271 275.045 286.669 274.136 275.038 273.373C263.978 272.639 253.091 272.346 242.546 276.366C236.945 278.507 231.515 281.236 225.628 282.527C225.142 282.674 225.342 283.525 225.885 283.407Z" fill="#E8E8E8"/>
<path d="M291.755 249.578C295.842 246.38 300.157 243.24 304.729 240.834C306.958 239.661 309.359 238.722 311.874 238.516C314.588 238.282 317.303 238.839 319.961 239.191C325.362 239.866 330.792 240.277 336.221 240.629C339.822 240.864 344.394 241.392 346.938 238.164C347.281 237.724 346.681 237.108 346.338 237.548C343.451 241.216 337.364 239.837 333.421 239.573C327.991 239.191 322.619 238.663 317.218 237.959C314.903 237.666 312.617 237.431 310.302 237.871C308.016 238.282 305.872 239.221 303.843 240.336C299.443 242.741 295.27 245.734 291.298 248.844C290.898 249.167 291.327 249.93 291.755 249.578Z" fill="#E8E8E8"/>
<path d="M134.438 244.737C138.496 241.597 142.583 238.487 146.641 235.348C150.527 232.355 154.157 229.216 159.243 228.952C164.044 228.717 168.96 229.274 173.732 229.685C178.876 230.125 183.991 230.712 189.078 231.445C193.365 232.062 198.48 233.705 202.538 231.416C203.024 231.152 202.595 230.389 202.109 230.653C200.023 231.827 197.708 231.827 195.394 231.534C192.907 231.211 190.421 230.771 187.935 230.419C183.134 229.744 178.304 229.186 173.446 228.776C168.674 228.365 163.73 227.778 158.958 228.071C154.528 228.335 151.242 230.683 147.784 233.353C143.183 236.873 138.611 240.424 134.01 243.944C133.581 244.326 134.01 245.089 134.438 244.737Z" fill="#E8E8E8"/>
<path d="M295.213 275.749C295.47 273.813 295.842 271.935 296.385 270.057C296.642 269.177 296.899 268.297 297.242 267.417C297.442 266.888 297.985 266.008 298.728 266.214C299.1 266.331 299.271 267.651 299.3 267.915C299.357 268.385 299.986 268.532 300.129 268.033C301.472 263.544 303.015 258.615 307.13 256.003C306.901 255.886 306.701 255.739 306.473 255.622C306.473 256.355 306.444 257.118 306.444 257.852C306.444 258.262 307.044 258.468 307.244 258.086C309.788 252.658 312.56 246.966 317.703 243.68C317.503 243.504 317.275 243.358 317.075 243.182C314.503 250.018 311.502 256.678 308.102 263.133C307.873 263.544 308.444 264.072 308.787 263.661C310.702 261.314 312.645 258.967 315.16 257.265C314.96 257.06 314.76 256.854 314.56 256.649C311.388 263.514 307.93 270.204 304.129 276.717C303.844 277.216 304.587 277.656 304.872 277.158C308.645 270.644 312.131 263.954 315.303 257.089C315.474 256.737 315.103 256.209 314.703 256.473C312.131 258.233 310.131 260.61 308.159 263.016C308.387 263.192 308.616 263.368 308.845 263.544C312.274 257.03 315.303 250.311 317.903 243.387C318.046 243.035 317.561 242.712 317.275 242.888C311.988 246.262 309.13 252.042 306.501 257.617C306.758 257.705 307.044 257.764 307.301 257.852C307.301 257.118 307.33 256.355 307.33 255.622C307.33 255.299 306.958 255.064 306.673 255.24C302.386 257.969 300.7 263.074 299.3 267.798C299.586 267.827 299.871 267.886 300.129 267.915C299.986 266.419 298.671 263.866 297.071 265.774C296.271 266.742 295.956 268.326 295.613 269.529C295.042 271.466 294.642 273.461 294.356 275.485C294.327 276.072 295.128 276.307 295.213 275.749Z" fill="#E8E8E8"/>
<path d="M95.5451 226.223C97.7742 224.991 100.032 223.758 102.489 223.084C105.09 222.379 107.662 222.614 110.262 222.966C115.435 223.67 120.607 224.374 125.751 225.079C126.294 225.167 126.294 224.286 125.751 224.198C120.236 223.436 114.692 222.614 109.176 221.939C106.633 221.616 104.204 221.617 101.746 222.35C99.4031 223.054 97.2312 224.257 95.0879 225.431C94.6021 225.753 95.0593 226.487 95.5451 226.223Z" fill="#E8E8E8"/>
<path d="M269.38 27.2079C271.437 25.4182 274.323 25.7703 276.581 26.9145C278.296 27.7654 279.696 29.4965 281.696 29.5845C283.554 29.6432 285.097 28.3522 286.669 27.5013C287.726 26.9439 288.812 26.5624 290.012 26.8265C291.298 27.0906 292.413 27.8534 293.584 28.3815C297.442 30.1126 300.014 27.7067 303.272 25.7996C304.186 25.2715 305.158 24.802 306.215 24.714C307.559 24.5966 308.759 25.2128 309.959 25.7409C311.845 26.5624 313.274 26.8852 315.189 26.093C317.16 25.3008 318.761 25.4182 320.733 26.1517C321.99 26.6211 323.19 27.2079 324.505 27.5013C326.477 27.9708 328.591 27.8534 330.077 26.2984C330.477 25.8876 329.849 25.2715 329.477 25.6822C327.563 27.6774 324.648 26.7385 322.447 25.8583C320.218 24.9781 317.932 24.0392 315.56 24.9487C314.074 25.5355 313.074 25.9463 311.474 25.3888C310.388 25.0074 309.387 24.3913 308.273 24.0685C306.587 23.5404 305.015 23.8338 303.472 24.626C301.7 25.5355 300.157 26.9732 298.3 27.7361C295.842 28.7336 293.927 27.4133 291.698 26.4451C290.069 25.7409 288.526 25.6235 286.897 26.3571C284.925 27.2666 283.011 29.2617 280.696 28.4109C279.467 27.9708 278.496 26.9439 277.381 26.2984C276.438 25.7703 275.409 25.3888 274.352 25.1834C272.323 24.802 270.351 25.1541 268.751 26.5331C268.351 26.9732 268.979 27.5894 269.38 27.2079Z" fill="#E8E8E8"/>
<path d="M279.667 47.2473C280.21 47.2473 280.21 46.3671 279.667 46.3671C279.124 46.3671 279.124 47.2473 279.667 47.2473Z" fill="#E8E8E8"/>
<path d="M285.383 50.4453C286.726 47.9514 289.898 49.1544 291.87 49.9759C293.841 50.7974 295.613 51.2962 297.699 50.5627C299.414 49.9465 300.957 48.7729 302.729 48.3622C305.187 47.7754 306.587 49.9172 308.816 50.416C312.302 51.2082 315.817 47.2179 319.104 48.8903C320.018 49.3597 320.647 49.9759 321.733 49.8879C322.733 49.8292 323.647 49.3304 324.619 49.0957C327.334 48.4502 330.163 48.949 332.592 50.328C333.078 50.592 333.506 49.8292 333.021 49.5651C331.478 48.6849 329.82 48.1568 328.077 47.9808C327.191 47.8927 326.276 47.9221 325.391 48.0688C324.333 48.2155 323.362 48.6849 322.333 48.8903C320.933 49.1544 320.332 48.4502 319.189 47.9514C318.618 47.7167 317.989 47.5993 317.389 47.6287C315.96 47.6873 314.588 48.3035 313.274 48.8023C311.588 49.4478 309.787 50.0639 308.073 49.1837C306.615 48.4502 305.472 47.3353 303.758 47.3353C300.214 47.3646 297.728 50.8561 293.984 49.7999C291.212 49.0077 286.754 46.2203 284.697 49.9759C284.382 50.504 285.125 50.9441 285.383 50.4453Z" fill="#E8E8E8"/>
<path d="M257.663 85.5656C259.692 83.9226 262.007 84.0106 264.236 85.0668C265.464 85.6537 266.779 86.2111 268.065 85.4189C268.808 84.9495 269.294 84.216 270.18 83.9519C271.123 83.6585 272.123 83.8639 273.037 84.0986C274.666 84.5094 276.238 85.2429 277.924 85.3603C279.924 85.507 281.753 84.6267 283.697 84.4214C285.783 84.216 287.24 85.507 289.183 85.8004C291.07 86.0644 292.527 84.5094 294.413 84.8028C296.699 85.1549 298.957 85.9471 301.214 86.5339C301.757 86.6806 301.986 85.8297 301.443 85.683C299.071 85.0669 296.613 84.128 294.184 83.8639C292.127 83.6292 290.641 85.3602 288.583 84.7148C286.669 84.128 285.297 83.2771 283.239 83.5705C281.039 83.8932 279.039 84.7734 276.781 84.2747C275.038 83.8932 273.352 83.0424 271.551 82.925C270.894 82.8957 270.208 82.9544 269.58 83.2184C268.779 83.5412 268.351 84.216 267.608 84.6561C265.893 85.683 263.578 83.5118 261.749 83.3651C260.006 83.2184 258.406 83.8346 257.034 84.9201C256.606 85.3016 257.234 85.9177 257.663 85.5656Z" fill="#E8E8E8"/>
<path d="M93.8305 21.5453C94.3734 21.5453 94.3734 20.665 93.8305 20.665C93.2875 20.665 93.2875 21.5453 93.8305 21.5453Z" fill="#E8E8E8"/>
<path d="M96.3452 22.2201C96.8596 19.6088 100.232 21.2812 101.461 22.0734C102.861 22.9829 104.347 23.8045 106.061 23.3057C107.919 22.7482 109.176 21.1052 111.234 20.9878C113.177 20.8998 115.063 21.8093 116.892 22.3961C118.464 22.8949 120.121 23.247 121.75 22.8362C123.665 22.3668 125.294 20.9878 127.237 20.6357C131.066 19.9609 134.524 23.159 138.411 21.9267C138.925 21.7506 138.725 20.8998 138.182 21.0758C134.124 22.3961 130.266 18.6993 126.151 20.0196C124.036 20.6944 122.265 22.2201 119.95 22.1321C117.807 22.044 115.863 20.9878 113.834 20.4597C112.234 20.0489 110.605 19.9315 109.062 20.6651C108.176 21.0758 107.405 21.7506 106.519 22.1907C105.061 22.8949 103.832 22.4842 102.518 21.7213C101.089 20.8704 99.8602 19.8729 98.117 20.0196C96.8882 20.1076 95.8023 20.7531 95.5736 22.044C95.4308 22.5428 96.2595 22.7776 96.3452 22.2201Z" fill="#E8E8E8"/>
<path d="M98.9457 193.538C102.346 192.071 105.776 194.682 109.205 194.858C110.977 194.946 112.691 194.506 114.434 194.154C116.635 193.714 118.521 193.685 120.636 194.594C121.922 195.152 123.093 195.504 124.408 194.976C125.151 194.682 125.78 194.183 126.523 193.919C127.351 193.626 128.209 193.567 129.094 193.567C132.152 193.626 135.21 194.711 138.125 193.303C138.611 193.068 138.182 192.306 137.696 192.54C134.581 194.037 131.123 192.394 127.837 192.746C126.265 192.922 125.237 193.861 123.779 194.301C122.036 194.829 120.321 193.303 118.607 193.039C114.92 192.452 111.434 194.565 107.719 193.802C104.747 193.186 101.746 191.396 98.717 192.716C98.2312 192.922 98.4599 193.773 98.9457 193.538Z" fill="#E8E8E8"/>
<path d="M37.162 150.32C39.6557 150.32 41.6772 148.244 41.6772 145.684C41.6772 143.124 39.6557 141.048 37.162 141.048C34.6684 141.048 32.6469 143.124 32.6469 145.684C32.6469 148.244 34.6684 150.32 37.162 150.32Z" fill="#0A3871"/>
<path d="M299.986 118.456C301.738 118.456 303.158 116.998 303.158 115.199C303.158 113.401 301.738 111.943 299.986 111.943C298.234 111.943 296.814 113.401 296.814 115.199C296.814 116.998 298.234 118.456 299.986 118.456Z" fill="#0A3871"/>
<path d="M271.437 4.99729C272.731 4.99729 273.78 3.92013 273.78 2.59139C273.78 1.26264 272.731 0.185486 271.437 0.185486C270.143 0.185486 269.094 1.26264 269.094 2.59139C269.094 3.92013 270.143 4.99729 271.437 4.99729Z" fill="#0A3871"/>
<path d="M168.217 213.636C169.826 213.636 171.132 212.296 171.132 210.643C171.132 208.99 169.826 207.65 168.217 207.65C166.607 207.65 165.302 208.99 165.302 210.643C165.302 212.296 166.607 213.636 168.217 213.636Z" fill="#0A3871"/>
<path d="M33.8471 43.6678C35.6936 43.6678 37.1906 42.1309 37.1906 40.235C37.1906 38.3391 35.6936 36.8022 33.8471 36.8022C32.0005 36.8022 30.5035 38.3391 30.5035 40.235C30.5035 42.1309 32.0005 43.6678 33.8471 43.6678Z" fill="#0A3871"/>
<path d="M149.127 164.11C150.185 164.11 151.042 163.229 151.042 162.144C151.042 161.058 150.185 160.178 149.127 160.178C148.07 160.178 147.212 161.058 147.212 162.144C147.212 163.229 148.07 164.11 149.127 164.11Z" fill="#0A3871"/>
<path d="M329.849 180.834C331.459 180.834 332.764 179.494 332.764 177.841C332.764 176.188 331.459 174.848 329.849 174.848C328.239 174.848 326.934 176.188 326.934 177.841C326.934 179.494 328.239 180.834 329.849 180.834Z" fill="#0A3871"/>
<path d="M12.1285 230.301C13.328 230.301 14.3004 229.303 14.3004 228.071C14.3004 226.84 13.328 225.842 12.1285 225.842C10.929 225.842 9.95667 226.84 9.95667 228.071C9.95667 229.303 10.929 230.301 12.1285 230.301Z" fill="#0A3871"/>
<path d="M100.946 57.0177C98.46 62.2109 95.9452 67.4041 93.459 72.5974C103.747 86.7687 114.034 100.911 124.322 115.082C126.98 110.945 129.609 106.72 132.267 102.466C138.525 92.3727 144.498 82.397 150.213 72.5093C148.27 67.4335 146.298 62.3283 144.355 57.2524C143.097 56.5776 141.84 55.9321 140.583 55.2573C128.409 55.2866 116.235 55.3159 104.09 55.3453C103.004 55.9321 101.975 56.4896 100.946 57.0177Z" fill="white"/>
<path d="M93.8019 72.832C95.9738 67.9322 98.2028 63.0617 100.489 58.2206C100.718 57.7218 100.003 57.2524 99.746 57.7805C97.4598 62.6216 95.2308 67.4921 93.0589 72.3919C92.8303 72.8907 93.5733 73.3602 93.8019 72.832Z" fill="black"/>
<path d="M93.2305 73.3602C103.29 87.5315 113.549 101.527 124.008 115.405C124.351 115.845 124.951 115.229 124.608 114.789C114.206 100.969 104.004 87.0328 93.9735 72.9201C93.6591 72.48 92.9161 72.9201 93.2305 73.3602Z" fill="black"/>
<path d="M100.689 57.7218C101.889 57.0763 103.061 56.4015 104.261 55.756C104.747 55.492 104.318 54.7291 103.833 54.9932C102.632 55.6387 101.461 56.3135 100.26 56.959C99.746 57.2524 100.203 57.9859 100.689 57.7218Z" fill="black"/>
<path d="M104.976 55.8147C113.892 55.8147 122.836 55.8147 131.752 55.8147C132.295 55.8147 132.295 54.9345 131.752 54.9345C122.836 54.9345 113.892 54.9345 104.976 54.9345C104.433 54.9345 104.433 55.8147 104.976 55.8147Z" fill="black"/>
<path d="M150.613 72.4213C148.813 67.5215 146.955 62.6803 145.041 57.8098C144.841 57.2817 144.012 57.5164 144.212 58.0446C146.127 62.8857 147.984 67.7562 149.784 72.656C149.985 73.1841 150.813 72.9494 150.613 72.4213Z" fill="black"/>
<path d="M149.67 72.8614C141.297 86.9447 132.753 100.94 124.037 114.818C123.722 115.287 124.465 115.728 124.78 115.258C133.496 101.38 142.04 87.4142 150.413 73.3015C150.699 72.8321 149.956 72.3626 149.67 72.8614Z" fill="black"/>
<path d="M144.526 56.9004C143.526 56.2549 142.526 55.58 141.526 54.9346C141.069 54.6412 140.64 55.3747 141.097 55.6974C142.097 56.3429 143.098 57.0177 144.098 57.6632C144.584 57.986 145.012 57.2231 144.526 56.9004Z" fill="black"/>
<path d="M140.554 54.8466C133.095 54.8466 125.637 54.8466 118.207 54.8466C117.664 54.8466 117.664 55.7268 118.207 55.7268C125.665 55.7268 133.124 55.7268 140.554 55.7268C141.097 55.7268 141.097 54.8466 140.554 54.8466Z" fill="black"/>
<path d="M94.1449 73.2722C99.2602 71.013 104.376 68.7538 109.491 66.4946C110.005 66.2599 109.548 65.5263 109.062 65.7317C103.947 67.9909 98.8316 70.2501 93.7163 72.5093C93.2305 72.7441 93.6591 73.5069 94.1449 73.2722Z" fill="black"/>
<path d="M100.832 57.4578C103.975 57.9566 107.062 58.6607 110.12 59.5409C110.663 59.6876 110.891 58.8368 110.348 58.6901C107.29 57.7805 104.204 57.1057 101.061 56.6069C100.518 56.5189 100.26 57.3697 100.832 57.4578Z" fill="black"/>
<path d="M109.891 59.3943C110.577 61.5948 111.177 63.7953 111.691 66.0545C111.806 66.612 112.634 66.3772 112.52 65.8198C112.006 63.5606 111.405 61.3601 110.72 59.1595C110.548 58.6314 109.719 58.8368 109.891 59.3943Z" fill="black"/>
<path d="M111.205 59.4823C118.864 59.4823 126.494 59.4823 134.153 59.4823C134.696 59.4823 134.696 58.6021 134.153 58.6021C126.494 58.6021 118.864 58.6021 111.205 58.6021C110.662 58.6021 110.662 59.4823 111.205 59.4823Z" fill="black"/>
<path d="M133.781 59.6584C133.496 61.2721 133.21 62.9151 132.924 64.5288C132.838 65.0863 133.667 65.321 133.753 64.7636C134.039 63.1498 134.324 61.5068 134.61 59.8931C134.696 59.3356 133.867 59.1009 133.781 59.6584Z" fill="black"/>
<path d="M112.148 66.1131C118.835 66.1131 125.523 66.1131 132.238 66.1131C132.781 66.1131 132.781 65.2329 132.238 65.2329C125.551 65.2329 118.864 65.2329 112.148 65.2329C111.605 65.2329 111.605 66.1131 112.148 66.1131Z" fill="black"/>
<path d="M134.982 59.4823C138.096 58.8075 141.183 58.1327 144.298 57.4578C144.841 57.3405 144.612 56.4896 144.069 56.607C140.954 57.2818 137.868 57.9566 134.753 58.6315C134.21 58.7488 134.439 59.5997 134.982 59.4823Z" fill="black"/>
<path d="M133.553 65.8491C136.439 66.3185 139.125 67.9909 141.754 69.2525C144.555 70.6022 147.327 71.9518 150.128 73.3015C150.613 73.5362 151.071 72.7734 150.556 72.5386C147.584 71.101 144.641 69.6926 141.669 68.255C139.154 67.0227 136.553 65.4676 133.781 64.9982C133.238 64.9102 133.01 65.761 133.553 65.8491Z" fill="black"/>
<path d="M112.406 67.4628C116.121 83.1892 119.807 98.945 123.522 114.671C123.665 115.229 124.465 114.994 124.351 114.437C120.636 98.7102 116.949 82.9545 113.234 67.2281C113.092 66.6707 112.263 66.9054 112.406 67.4628Z" fill="black"/>
<path d="M132.352 68.519C128.866 83.6586 125.98 98.9742 123.751 114.378C123.665 114.935 124.494 115.17 124.579 114.613C126.808 99.2089 129.695 83.9227 133.181 68.7537C133.324 68.1963 132.495 67.9615 132.352 68.519Z" fill="black"/>
<path d="M132.638 39.1495C133.924 35.7754 134.639 32.2252 134.753 28.587C134.782 28.0296 133.924 28.0296 133.896 28.587C133.781 32.1372 133.067 35.5994 131.81 38.9148C131.61 39.4429 132.438 39.6483 132.638 39.1495Z" fill="black"/>
<path d="M138.497 39.7362C141.24 36.5381 144.326 33.7215 147.784 31.3449C148.241 31.0222 147.813 30.2593 147.355 30.5821C143.84 32.988 140.668 35.8633 137.896 39.1201C137.525 39.5309 138.125 40.147 138.497 39.7362Z" fill="black"/>
<path d="M144.126 45.1642C147.67 44.0786 151.328 43.6679 155.014 43.9613C155.557 43.9906 155.557 43.1104 155.014 43.0811C151.242 42.7877 147.527 43.1984 143.898 44.3134C143.383 44.4894 143.583 45.3403 144.126 45.1642Z" fill="black"/>
<path d="M83.9143 24.5967C84.2572 30.4061 81.0852 35.9514 75.9984 38.4746C75.7127 38.6213 75.7412 39.0614 75.9984 39.2375C80.6565 42.1128 82.7998 47.3941 84.0286 52.5873C84.1715 53.1448 84.9716 52.91 84.8573 52.3526C83.5714 46.9246 81.2852 41.438 76.4271 38.4746C76.4271 38.7387 76.4271 38.9734 76.4271 39.2375C81.771 36.5675 85.1431 30.6701 84.7716 24.5967C84.743 24.0392 83.8857 24.0392 83.9143 24.5967Z" fill="#E8E8E8"/>
<path d="M84.2286 24.5967C83.8571 30.6995 87.2292 36.5969 92.5731 39.2375C92.5731 38.9734 92.5731 38.7387 92.5731 38.4746C87.6864 41.4673 85.4002 46.954 84.1143 52.4112C83.9714 52.9687 84.8001 53.2034 84.943 52.646C86.1718 47.4234 88.3151 42.1128 93.0017 39.2375C93.2589 39.0908 93.2875 38.6213 93.0017 38.4746C87.915 35.9514 84.7144 30.4061 85.0573 24.5967C85.1145 24.0392 84.2572 24.0392 84.2286 24.5967Z" fill="#E8E8E8"/>
<path d="M223.37 244.854C224.371 244.414 225.742 243.768 227.314 242.859C229.943 241.362 231.258 240.6 232.058 239.397C233.087 237.812 232.687 236.961 234.03 235.377C234.23 235.113 235.173 234.086 236.402 233.529C238.516 232.619 240.488 233.705 243.775 234.908C246.804 236.023 249.176 236.551 253.919 237.636C255.805 238.076 258.092 238.516 261.407 239.573C262.35 239.866 263.093 240.13 263.607 240.306C263.664 240.922 263.693 242.507 262.693 243.944C262.235 244.59 261.607 245.118 260.606 245.587C258.292 246.702 256.091 246.497 254.234 246.409C250.233 246.233 251.89 246.82 242.46 246.996C240.402 247.025 238.716 247.025 237.545 247.025C236.087 248.052 234.63 249.108 233.144 250.194C230.629 252.072 228.229 253.949 225.942 255.798C225.085 252.16 224.228 248.492 223.37 244.854Z" fill="black"/>
<path d="M211.454 207.298C209.396 208.413 209.168 208.824 201.509 215.514C189.564 225.93 188.249 226.487 177.419 236.199C167.045 245.47 165.102 247.788 163.13 250.839C158.215 258.556 157.129 265.011 156.814 268.15C156.386 272.375 155.814 278.243 159.444 282.879C161.73 285.784 164.702 286.987 165.702 287.368C168.702 288.542 171.16 288.395 175.59 288.072C181.476 287.632 185.963 286.458 187.735 285.96C189.678 285.402 194.193 284.023 199.852 281.148C205.167 278.449 207.453 276.453 214.712 271.436C217.941 269.206 222.713 265.95 228.714 262.194C229.086 259.26 228.772 256.972 228.457 255.534C227.714 252.13 226.2 249.783 224.514 247.201C223.142 245.089 221.827 243.475 220.913 242.419C223.056 240.746 225.857 238.34 228.8 235.113C230.772 232.942 233.887 229.48 236.487 224.609C239.688 218.624 242.889 212.58 240.831 208.413C237.602 201.871 222.227 201.577 211.454 207.298Z" fill="white"/>
<path opacity="0.18" d="M237.059 210.497C235.43 214.369 232.744 219.856 228.457 225.724C222.227 234.204 215.94 238.898 206.453 245.852C179.619 265.51 172.418 269.999 173.218 271.876C174.304 274.429 189.421 269.852 191.621 269.177C207.682 264.307 219.513 256.796 226.914 251.309C225.028 248.346 223.142 245.382 221.256 242.448C223.571 240.746 226.771 238.047 229.772 234.027C231.429 231.827 233.944 228.423 235.573 223.289C237.23 218.184 237.288 213.636 237.059 210.497Z" fill="#9B9797"/>
<path d="M211.34 207.269C201.166 215.044 191.25 223.201 181.705 231.739C177.133 235.817 172.56 239.896 168.274 244.267C164.473 248.14 160.93 252.424 158.786 257.529C156.557 262.81 155.929 268.913 156.472 274.634C156.929 279.358 158.615 284.111 162.816 286.576C167.217 289.129 172.76 288.865 177.619 288.336C183.591 287.72 189.478 286.224 195.051 283.906C207.482 278.713 217.226 269.001 228.972 262.576C229.457 262.312 229.029 261.549 228.543 261.813C218.741 267.182 210.397 274.928 200.566 280.297C195.422 283.114 189.878 285.168 184.163 286.429C178.876 287.574 172.932 288.454 167.559 287.397C165.045 286.899 162.616 285.842 160.815 283.906C159.072 281.999 158.129 279.505 157.643 276.952C156.586 271.407 157.072 265.128 158.843 259.788C160.615 254.448 164.073 249.959 167.845 245.969C171.76 241.832 176.047 238.018 180.248 234.233C190.393 225.079 200.909 216.335 211.768 208.061C212.197 207.709 211.797 206.947 211.34 207.269Z" fill="black"/>
<path d="M183.334 267.417C192.707 263.69 201.195 258.116 209.253 252.013C213.226 249.02 217.141 245.91 221.027 242.8C224.857 239.719 228.514 236.463 231.486 232.502C231.829 232.062 231.086 231.622 230.743 232.062C227.714 236.111 223.913 239.367 220.027 242.507C216.198 245.588 212.34 248.639 208.396 251.602C200.509 257.529 192.25 262.986 183.105 266.595C182.591 266.771 182.82 267.622 183.334 267.417Z" fill="black"/>
<path d="M220.598 242.712C226.114 247.465 229.029 254.83 228.257 262.194C228.2 262.752 229.057 262.752 229.114 262.194C229.886 254.624 226.857 246.996 221.199 242.096C220.799 241.715 220.198 242.331 220.598 242.712Z" fill="black"/>
<path d="M228.2 254.008C229.829 253.509 231.258 252.101 232.629 251.103C234.344 249.871 236.03 248.639 237.745 247.407C238.202 247.084 237.773 246.321 237.316 246.644C235.773 247.759 234.201 248.903 232.658 250.018C231.229 251.045 229.657 252.629 227.971 253.157C227.428 253.304 227.657 254.155 228.2 254.008Z" fill="black"/>
<path d="M223.485 245.265C226.714 243.886 229.686 242.008 232.372 239.69C232.801 239.309 232.172 238.693 231.772 239.074C229.229 241.304 226.371 243.094 223.285 244.414C222.77 244.649 222.999 245.499 223.485 245.265Z" fill="black"/>
<path d="M232.058 239.309C232.601 239.309 232.601 238.428 232.058 238.428C231.515 238.428 231.515 239.309 232.058 239.309Z" fill="black"/>
<path d="M233.087 238.253C233.573 237.079 234.087 235.788 235.001 234.878C236.23 233.646 237.716 233.822 239.288 234.174C242.203 234.849 245.06 235.788 247.918 236.639C250.576 237.402 253.234 238.076 255.977 238.399C257.577 238.575 258.92 238.781 260.349 239.514C261.407 240.042 262.321 240.57 263.493 240.688C264.036 240.746 264.036 239.866 263.493 239.808C261.921 239.661 260.692 238.546 259.206 238.047C257.72 237.548 256.063 237.578 254.52 237.314C251.147 236.756 247.861 235.7 244.603 234.702C243.003 234.233 241.403 233.763 239.774 233.382C238.573 233.118 237.316 232.795 236.116 233.177C234.03 233.822 233.03 236.111 232.258 238.018C232.058 238.546 232.887 238.781 233.087 238.253Z" fill="black"/>
<path d="M237.63 248.052C243.746 247.113 249.804 246.967 255.977 246.849C258.12 246.82 260.406 246.556 262.121 245.118C263.578 243.886 264.407 242.096 264.007 240.189C263.893 239.631 263.064 239.866 263.178 240.424C263.721 243.094 261.378 245.059 259.063 245.646C256.691 246.233 254.119 245.94 251.69 245.998C246.889 246.086 242.146 246.497 237.402 247.231C236.859 247.289 237.116 248.14 237.63 248.052Z" fill="black"/>
<path d="M259.321 242.213C261.435 240.658 263.579 239.103 265.693 237.548C265.836 236.551 266.293 234.379 268.037 232.531C268.551 231.974 269.751 230.683 271.552 230.33C273.438 229.949 274.895 230.829 276.524 231.592C279.153 232.824 281.696 233.294 286.726 234.291C290.698 235.054 292.699 235.436 295.556 235.289C299.443 235.054 302.215 233.998 303.872 235.67C304.044 235.846 304.758 236.639 304.701 237.607C304.615 238.839 303.329 239.631 302.301 240.248C297.814 242.888 295.299 243.651 295.299 243.651C288.955 245.558 285.754 246.526 283.011 246.761C280.782 246.937 277.61 247.025 273.781 246.409C272.666 250.341 269.294 252.864 266.122 252.658C262.035 252.394 258.263 247.671 259.321 242.213Z" fill="black"/>
<path d="M218.284 216.277C218.912 214.311 220.084 211.817 222.284 210.995C223.713 210.467 225.028 210.819 225.457 210.937C228.114 211.611 233.572 210.643 244.46 208.736C249.861 207.797 256.691 206.418 264.55 204.364C264.579 205.861 264.55 207.827 264.464 210.115C264.264 215.25 263.75 219.123 263.636 220.032C263.15 223.67 262.292 229.714 259.692 237.049C259.035 238.927 258.377 240.482 257.92 241.539C259.035 242.067 260.235 242.771 261.407 243.768C266.236 247.729 267.636 253.333 268.094 255.71C267.408 256.561 266.379 257.822 265.064 259.26C259.749 265.069 254.834 268.326 245.461 274.282C239.688 277.95 235.459 280.62 228.686 284.727C220.456 289.715 213.797 293.588 205.51 296.023C203.452 296.64 200.194 297.461 196.079 297.021C194.079 296.816 190.478 296.434 187.02 293.852C182.591 290.566 181.191 285.754 180.619 283.642C179.333 278.918 179.819 274.488 181.019 269.881C181.848 266.654 184.848 255.945 195.279 243.886C197.365 241.48 203.309 236.052 215.14 225.196C217.998 222.585 220.341 220.443 221.913 219.035C220.713 218.096 219.513 217.186 218.284 216.277Z" fill="white"/>
<path opacity="0.18" d="M257.149 208.149C256.491 210.731 255.434 214.457 253.834 218.829C239.231 258.556 206.596 275.72 209.253 280.004C211.197 283.172 229.829 275.28 243.26 266.976C253.319 260.756 260.807 254.096 265.808 249.079C265.007 247.876 263.779 246.233 261.921 244.678C260.121 243.182 258.406 242.272 257.12 241.715C258.006 240.394 259.178 238.399 260.178 235.846C260.835 234.203 261.407 232.443 262.15 228.863C263.35 223.201 263.836 218.712 263.979 217.303C264.322 213.929 264.636 209.558 264.579 204.394C262.093 205.626 259.635 206.888 257.149 208.149Z" fill="#9B9797"/>
<path d="M264.15 204.364C264.179 209.91 263.836 215.455 263.093 220.971C262.407 225.93 261.55 231.035 259.778 235.729C257.863 240.805 254.577 244.502 250.605 247.993C246.547 251.544 242.46 255.035 238.374 258.527C233.687 262.546 228.972 266.536 224.285 270.556C223.856 270.908 224.456 271.524 224.885 271.172C233.487 263.837 242.089 256.531 250.633 249.108C254.405 245.822 257.835 242.419 259.892 237.695C261.893 233.118 262.864 228.101 263.636 223.172C264.607 216.951 265.065 210.673 265.007 204.364C265.007 203.778 264.15 203.778 264.15 204.364Z" fill="black"/>
<path d="M218.77 217.098C219.941 217.744 221.113 218.389 222.313 219.035C222.799 219.299 223.228 218.536 222.742 218.272C221.57 217.626 220.399 216.981 219.198 216.335C218.713 216.071 218.284 216.834 218.77 217.098Z" fill="black"/>
<path d="M222.313 218.683C212.14 227.191 201.452 235.612 192.964 245.94C185.649 254.83 179.619 266.096 179.648 278.038C179.648 283.29 181.048 288.776 184.82 292.503C188.592 296.258 194.05 297.725 199.194 297.461C205.481 297.138 211.454 294.586 217.055 291.769C223.056 288.747 228.743 285.168 234.458 281.617C246.232 274.282 259.378 267.446 268.208 256.267C268.551 255.827 267.951 255.211 267.608 255.651C260.206 265.04 249.804 271.055 239.888 277.216C234.43 280.62 229.029 284.082 223.456 287.309C217.998 290.478 212.311 293.5 206.281 295.29C200.623 296.962 194.308 297.314 188.964 294.41C183.82 291.652 181.191 286.312 180.648 280.503C179.59 268.766 185.334 257.089 192.279 248.17C200.937 237.05 212.254 228.189 222.942 219.269C223.342 218.947 222.742 218.33 222.313 218.683Z" fill="black"/>
<path d="M257.72 241.891C263.093 244.531 266.836 249.754 267.722 255.798C267.808 256.355 268.637 256.121 268.551 255.563C267.665 249.314 263.721 243.827 258.177 241.128C257.663 240.893 257.234 241.656 257.72 241.891Z" fill="black"/>
<path d="M259.435 242.654C260.578 242.184 261.492 241.392 262.464 240.629C263.607 239.72 264.779 238.839 265.922 237.93C266.35 237.578 265.922 236.815 265.493 237.167C264.464 237.959 263.436 238.751 262.407 239.573C261.407 240.365 260.406 241.333 259.206 241.803C258.72 242.008 258.92 242.859 259.435 242.654Z" fill="black"/>
<path d="M266.35 237.578C266.922 235.846 267.608 234.145 268.522 232.56C269.78 230.389 271.666 230.624 273.781 231.181C277.067 232.032 280.21 233.323 283.525 234.086C289.955 235.553 296.557 236.052 303.129 235.612C303.672 235.582 303.672 234.702 303.129 234.732C295.385 235.26 287.583 234.438 280.096 232.267C278.296 231.739 276.553 231.064 274.752 230.536C273.38 230.125 271.752 229.656 270.323 229.949C269.037 230.213 268.294 231.211 267.665 232.326C266.779 233.91 266.093 235.612 265.522 237.343C265.35 237.871 266.179 238.106 266.35 237.578Z" fill="black"/>
<path d="M267.579 251.749C269.723 250.076 271.837 248.404 273.981 246.732C274.409 246.38 273.981 245.617 273.552 245.969C271.409 247.641 269.294 249.314 267.151 250.986C266.722 251.338 267.151 252.101 267.579 251.749Z" fill="black"/>
<path d="M273.952 246.526C280.925 248.081 288.04 246.908 294.642 244.326C297.642 243.152 301.072 241.832 303.644 239.837C305.444 238.458 305.701 235.817 303.329 234.878C302.815 234.673 302.586 235.524 303.101 235.729C304.387 236.228 304.529 237.666 303.644 238.663C303.215 239.162 302.615 239.485 302.043 239.837C300.872 240.512 299.671 241.128 298.471 241.715C295.928 242.947 293.299 244.003 290.584 244.825C285.24 246.409 279.639 246.937 274.152 245.705C273.638 245.558 273.409 246.409 273.952 246.526Z" fill="black"/>
<path d="M199.48 119.806C203.824 116.109 210.311 111.649 218.97 109.009C223.028 107.776 228.114 106.251 234.858 106.838C245.203 107.747 252.319 112.97 254.834 114.877C258.778 117.84 261.464 120.98 263.121 123.18C263.436 143.748 263.864 164.344 264.407 184.912C264.579 191.249 264.75 197.616 264.95 203.954C260.892 206.536 255.205 209.44 248.004 211.142C231.143 215.103 217.112 209.822 211.425 207.269C211.397 202.076 211.082 194.272 209.539 184.912C207.024 169.538 203.109 163.347 200.652 150.114C199.423 143.278 198.251 133.009 199.48 119.806Z" fill="#0A3871"/>
<path d="M251.147 124.882C249.747 126.466 249.49 128.256 249.576 135.121C249.633 142.339 250.004 147.268 250.233 152.99C250.404 157.127 250.547 160.413 250.462 164.696C250.376 170.095 250.033 174.525 249.719 177.489C246.918 180.716 244.432 183.239 242.574 185.059C238.402 189.137 233.858 193.538 227.143 197.675C224.485 199.289 222.199 200.462 220.656 201.196C219.255 200.961 217.684 200.609 215.969 200.169C211.911 199.113 210.225 198.174 207.167 198.174C206.253 198.174 203.367 198.174 203.081 199.23C202.824 200.11 204.424 201.489 205.681 202.164C206.853 202.78 207.367 202.604 208.539 203.161C209.854 203.807 210.711 204.746 211.225 205.45C210.682 206.242 209.854 207.445 208.939 209C207.882 210.819 207.653 211.523 206.424 213.695C205.138 215.983 204.481 217.127 203.909 217.714C203.024 218.565 202.481 218.741 198.508 220.56C194.565 222.379 193.879 222.79 193.879 223.289C193.879 223.788 194.65 223.905 197.708 225.255C200.194 226.34 200.423 226.575 201.709 226.956C203.309 227.426 204.281 227.719 205.453 227.455C207.31 227.074 208.51 225.636 209.025 224.873C209.282 225.108 209.911 225.607 210.739 225.636C211.397 225.636 211.94 225.372 212.368 225.02C214.169 223.7 215.055 221.264 216.826 218.536C217.141 218.066 218.255 216.335 220.056 214.399C221.17 213.166 222.199 212.257 222.942 211.641C223.942 211.406 225.428 211.054 227.2 210.526C234.087 208.501 239.059 206.066 243.232 204.012C245.661 202.809 248.404 201.225 253.862 198.086C258.606 195.357 261.064 193.831 263.236 190.839C263.464 190.516 264.636 188.902 265.665 186.526C265.979 185.792 267.093 183.181 267.694 178.604C267.979 176.579 267.979 175.464 268.008 169.127C268.065 161.058 268.065 162.026 268.065 161.205C268.036 149.381 267.436 150.437 267.236 139.581C267.208 138.554 267.179 135.767 266.35 132.246C265.465 128.432 264.35 126.73 263.721 125.879C262.921 124.794 261.95 123.503 260.292 122.769C257.263 121.39 253.234 122.505 251.147 124.882Z" fill="white"/>
<path opacity="0.25" d="M260.321 122.74C261.007 125.058 261.835 128.403 262.407 132.451C263.093 137.351 263.35 142.75 261.807 156.863C260.521 168.657 259.892 174.555 258.235 180.071C255.863 187.934 254.148 193.655 248.918 198.174C245.546 201.078 241.86 202.428 234.458 205.098C229.029 207.064 224.371 208.237 221.17 208.971C218.884 212.14 215.483 216.159 210.654 219.973C206.881 222.966 203.252 225.02 200.252 226.428C200.68 226.722 202.452 227.895 204.852 227.573C207.653 227.191 209.168 225.137 209.425 224.756C209.968 225.167 210.768 225.607 211.654 225.46C213.483 225.167 214.454 222.497 214.94 221.294C215.998 218.8 218.112 215.367 222.856 211.611C226 210.761 230.258 209.47 235.201 207.533C242.088 204.805 246.718 202.164 251.69 199.318C259.663 194.741 261.464 192.863 262.778 191.044C265.179 187.729 266.179 184.325 266.608 182.829C267.379 180.159 267.522 177.166 267.808 171.327C268.008 166.985 268.008 163.64 268.008 161.117C268.008 156.775 267.922 153.547 267.836 150.76C267.722 146.711 267.494 141.958 266.922 136.266C266.493 132.129 266.179 130.486 265.265 128.637C263.864 125.703 261.778 123.825 260.321 122.74Z" fill="#9B9797"/>
<path d="M250.719 124.764C249.233 128.578 249.061 132.686 249.147 136.764C249.233 141.253 249.461 145.713 249.661 150.202C250.062 159.298 250.347 168.423 249.29 177.489C249.233 178.046 250.09 178.046 250.147 177.489C251.176 168.628 250.947 159.679 250.547 150.789C250.347 146.388 250.119 141.987 250.004 137.557C249.89 133.302 249.976 129.019 251.548 124.999C251.748 124.471 250.919 124.236 250.719 124.764Z" fill="black"/>
<path d="M250.947 176.726C248.318 178.222 246.204 180.393 244.175 182.653C241.974 185.088 239.774 187.464 237.316 189.636C232.287 194.125 226.628 197.822 220.57 200.697C220.056 200.932 220.513 201.694 220.999 201.46C226.828 198.702 232.287 195.181 237.173 190.927C239.602 188.843 241.831 186.555 243.975 184.178C246.204 181.684 248.433 179.161 251.348 177.518C251.862 177.195 251.433 176.433 250.947 176.726Z" fill="black"/>
<path d="M220.77 200.755C217.627 200.081 214.454 199.377 211.311 198.643C209.739 198.291 208.139 197.851 206.539 197.557C205.538 197.381 204.481 197.293 203.595 197.88C202.224 198.79 202.224 200.462 203.452 201.46C204.338 202.193 205.481 202.516 206.539 202.868C208.253 203.425 209.711 204.13 210.825 205.626C211.168 206.066 211.911 205.626 211.568 205.186C210.568 203.866 209.368 202.927 207.825 202.369C206.767 201.988 205.596 201.753 204.624 201.196C203.938 200.814 203.052 200.227 203.567 199.171C204.052 198.174 205.281 198.262 206.167 198.408C208.539 198.76 210.911 199.465 213.283 200.022C215.712 200.579 218.141 201.108 220.57 201.636C221.084 201.724 221.313 200.873 220.77 200.755Z" fill="black"/>
<path d="M210.139 205.773C208.882 208.149 207.596 210.497 206.339 212.873C205.71 214.017 205.167 215.25 204.424 216.365C203.652 217.509 202.623 218.096 201.423 218.683C199.166 219.768 196.737 220.648 194.565 221.91C193.593 222.497 192.964 223.553 193.793 224.58C194.822 225.842 196.851 225.343 198.223 225.108C200.109 224.785 201.909 224.14 203.624 223.318C207.196 221.558 210.225 218.8 212.397 215.396C212.711 214.927 211.968 214.487 211.654 214.956C209.739 218.008 207.082 220.472 203.967 222.174C202.481 222.966 200.88 223.612 199.251 223.993C198.337 224.228 197.365 224.433 196.394 224.463C195.508 224.521 195.279 224.639 194.851 223.729C194.308 223.201 194.365 222.849 194.993 222.673C195.193 222.585 195.365 222.497 195.565 222.409C197.394 221.529 199.251 220.678 201.08 219.797C202.509 219.123 203.909 218.536 204.881 217.216C206.024 215.661 206.824 213.812 207.739 212.11C208.796 210.145 209.854 208.179 210.882 206.242C211.139 205.714 210.396 205.274 210.139 205.773Z" fill="black"/>
<path d="M223.199 212.198C230.829 209.998 238.231 207.064 245.318 203.426C248.833 201.607 252.262 199.641 255.605 197.47C258.606 195.533 261.778 193.567 263.921 190.604C264.236 190.134 263.493 189.694 263.178 190.164C260.949 193.274 257.463 195.298 254.319 197.294C251.119 199.318 247.804 201.196 244.432 202.927C237.545 206.418 230.372 209.235 222.97 211.377C222.456 211.494 222.685 212.345 223.199 212.198Z" fill="black"/>
<path d="M251.29 125.557C253.662 120.774 259.749 121.86 262.75 125.263C266.35 129.371 266.522 135.386 266.922 140.608C267.779 152.021 267.951 163.523 267.265 174.936C266.922 180.481 266.122 186.35 262.521 190.751C262.178 191.191 262.778 191.807 263.121 191.367C266.35 187.376 267.465 182.33 267.922 177.283C268.522 170.829 268.522 164.286 268.465 157.801C268.408 151.024 268.094 144.217 267.493 137.469C267.036 132.393 266.15 126.789 262.064 123.415C258.577 120.539 252.748 120.627 250.519 125.116C250.29 125.615 251.033 126.055 251.29 125.557Z" fill="black"/>
<path d="M197.451 225.607C199.537 226.575 202.052 228.042 204.424 228.042C206.71 228.013 208.396 226.076 209.939 224.609C214.369 220.384 218.798 216.159 223.228 211.964C223.628 211.582 223.028 210.966 222.627 211.347C218.884 214.927 215.14 218.477 211.397 222.057C209.739 223.612 208.025 225.841 205.938 226.81C203.481 227.954 200.109 225.9 197.908 224.873C197.394 224.609 196.965 225.372 197.451 225.607Z" fill="black"/>
<path d="M209.082 224.991C210.025 226.81 212.111 226.076 213.169 224.815C215.255 222.291 216.884 219.24 218.655 216.511C218.97 216.042 218.227 215.602 217.912 216.071C216.798 217.773 215.683 219.475 214.569 221.177C213.94 222.115 211.168 227.191 209.825 224.551C209.568 224.052 208.825 224.492 209.082 224.991Z" fill="black"/>
<path d="M202.452 223.553C203.309 224.023 204.367 224.492 205.31 224.023C205.796 223.759 205.996 223.348 206.224 222.878C206.624 222.086 207.024 221.47 207.767 220.971C208.225 220.648 207.796 219.886 207.339 220.208C206.653 220.678 206.081 221.265 205.681 222.027C205.395 222.585 205.224 223.26 204.481 223.318C203.938 223.377 203.338 223.025 202.881 222.79C202.423 222.556 201.966 223.289 202.452 223.553Z" fill="black"/>
<path d="M196.594 55.9027C195.593 57.9858 194.593 61.4773 194.279 62.6216C193.822 64.2647 192.793 68.1082 192.221 73.2134C191.907 76.0301 191.564 79.1108 191.85 83.1891C191.993 85.1256 192.193 88.177 193.307 91.9619C194.05 94.5438 195.136 98.27 198.08 102.084C200.652 105.4 203.595 107.483 205.938 108.745C207.424 108.774 209.225 108.686 211.225 108.304C214.826 107.6 217.626 106.221 219.513 105.106C219.77 106.603 220.113 108.187 220.541 109.83C221.427 113.234 222.513 116.226 223.599 118.808C224.771 118.603 226.171 118.251 227.657 117.547C232.372 115.287 234.63 111.121 235.43 109.39C235.001 107.688 234.658 105.84 234.344 103.933C233.258 96.803 233.544 90.4362 234.23 85.2723C234.83 85.4777 235.801 85.7417 237.002 85.6831C239.345 85.5364 240.945 84.2161 241.746 83.5119C242.431 82.9251 245.546 80.0791 245.432 75.8541C245.403 74.8565 245.346 72.4213 243.66 71.1009C242.088 69.898 239.974 70.3381 238.431 70.6608C236.659 71.0423 235.344 71.8051 234.544 72.3332C235.144 70.3088 236.402 65.1155 234.544 59.0714C234.144 57.7805 231.486 49.5652 223.656 46.015C213.026 41.1445 200.252 48.3622 196.594 55.9027Z" fill="white"/>
<path opacity="0.24" d="M228.886 56.0787C229.115 58.8074 229.286 62.7683 228.886 67.4627C227.657 81.6928 222.17 91.5804 220.741 94.045C218.57 97.8006 214.855 103.258 208.911 108.627C210.682 108.392 212.711 107.982 214.883 107.189C220.856 105.018 224.857 101.292 227.028 98.8568C227.2 102.114 227.743 106.075 229.029 110.417C229.6 112.265 230.229 113.967 230.886 115.493C232.401 113.468 233.887 111.444 235.402 109.39C235.087 107.483 234.801 105.458 234.601 103.375C233.944 97.0671 233.944 91.2577 234.287 86.0938C235.573 86.1232 237.43 86.0058 239.402 85.2136C248.033 81.6928 252.948 67.6975 248.29 60.069C248.09 59.7462 247.061 58.1032 244.946 56.6362C238.402 52.1178 230.086 55.5506 228.886 56.0787Z" fill="#9B9797"/>
<path d="M194.508 61.7414C193.936 59.7169 193.136 55.844 193.965 51.0909C194.222 49.6239 195.108 44.9001 198.251 41.1739C202.852 35.7459 208.625 36.7728 216.112 34.0149C220.856 32.2838 227.371 28.6456 233.973 20.0782C233.372 23.247 232.772 26.4451 232.172 29.6138C233.201 29.9072 236.659 30.6701 240.202 28.8803C246.089 25.9169 246.604 18.7579 246.632 18.4352C247.347 20.0782 248.633 23.7164 248.061 28.3522C247.661 31.5209 246.546 33.8975 245.746 35.3352C246.089 35.7166 247.918 37.6531 250.033 37.3597C252.605 37.0076 255.005 33.3987 254.319 28.7336C254.891 30.4647 255.577 33.3107 255.405 36.8022C255.177 41.0565 253.805 44.2546 252.891 45.9857C253.119 46.1911 254.577 47.5407 256.634 47.2767C258.435 47.0419 259.978 45.6923 260.578 43.7852C260.435 45.751 260.092 48.597 258.978 51.8537C257.463 56.2548 256.206 56.6069 255.577 59.7463C254.577 64.6754 257.149 66.3478 256.463 70.7489C255.891 74.4458 253.548 76.7636 250.576 79.727C245.175 85.0963 238.974 88.001 233.772 89.6147C234.001 87.9716 234.258 86.3286 234.487 84.6855C235.144 85.0963 236.287 85.6537 237.716 85.595C240.631 85.4777 242.46 82.8077 243.432 81.3701C244.546 79.7563 246.404 76.9984 245.403 74.035C244.575 71.6291 242.374 70.6315 242.174 70.5435C239.602 69.4286 236.287 70.4261 234.144 73.1254C232.944 68.2843 231.772 63.4725 230.572 58.6313C226.514 55.9907 222.485 53.3794 218.427 50.7388C216.426 50.3574 210.968 49.5945 204.852 52.3819C198.68 55.1985 195.536 59.981 194.508 61.7414Z" fill="#0A3871"/>
<path d="M194.079 61.6241C191.65 70.9543 190.193 80.8713 192.422 90.4069C194.25 98.1527 198.88 106.984 206.767 109.507C207.282 109.683 207.51 108.833 206.996 108.657C199.08 106.133 194.651 96.9498 193.022 89.204C191.107 80.1085 192.564 70.7196 194.879 61.8588C195.051 61.3307 194.222 61.096 194.079 61.6241Z" fill="black"/>
<path d="M207.396 109.361C220.57 107.982 231.572 98.2113 234.658 84.9495C234.773 84.3921 233.973 84.1573 233.83 84.7148C230.829 97.5365 220.227 107.131 207.396 108.48C206.853 108.539 206.824 109.419 207.396 109.361Z" fill="black"/>
<path d="M233.915 85.1843C239.802 88.8811 245.546 81.1353 245.918 75.7074C246.118 72.832 244.832 70.6315 242.06 69.81C239.488 69.0471 236.687 69.8393 234.859 71.8344C234.487 72.2452 235.087 72.8613 235.459 72.4506C236.973 70.7782 239.259 70.0447 241.46 70.5435C242.603 70.8075 243.86 71.453 244.518 72.5093C245.232 73.6535 245.146 75.2379 244.975 76.4995C244.289 81.0473 239.374 87.5608 234.344 84.3921C233.887 84.128 233.43 84.8909 233.915 85.1843Z" fill="black"/>
<path d="M233.858 85.1256C232.744 93.2528 233.144 101.497 235.03 109.478C235.173 110.035 236.002 109.801 235.859 109.243C234.001 101.409 233.601 93.3115 234.687 85.3603C234.744 84.8028 233.915 84.5681 233.858 85.1256Z" fill="black"/>
<path d="M219.084 105.224C219.97 109.977 221.342 114.583 223.228 119.043C223.456 119.571 224.199 119.102 223.971 118.603C222.113 114.231 220.77 109.683 219.913 104.989C219.798 104.431 218.998 104.666 219.084 105.224Z" fill="black"/>
<path d="M223.828 119.16C229.343 118.251 234.001 114.349 236.087 109.038C236.287 108.51 235.459 108.275 235.259 108.803C233.287 113.85 228.8 117.459 223.599 118.309C223.056 118.397 223.285 119.248 223.828 119.16Z" fill="black"/>
<path d="M219.77 106.25C220.941 106.309 221.742 105.488 222.627 104.783C223.799 103.845 224.914 102.847 225.942 101.791C227.857 99.825 229.4 97.5658 230.4 94.9838C230.6 94.4557 229.772 94.221 229.572 94.7491C228.686 97.0376 227.314 99.0621 225.657 100.823C224.914 101.644 224.113 102.378 223.285 103.111C222.37 103.903 221.056 105.429 219.77 105.37C219.227 105.341 219.227 106.221 219.77 106.25Z" fill="black"/>
<path d="M219.827 105.781C222.256 104.168 224.514 102.319 226.628 100.295C227.028 99.9132 226.428 99.2678 226.028 99.6785C223.971 101.674 221.77 103.463 219.398 105.048C218.912 105.312 219.37 106.075 219.827 105.781Z" fill="black"/>
<path d="M203.024 63.3258C201.423 70.8075 200.509 78.4067 200.309 86.0645C200.309 86.5046 200.88 86.6513 201.109 86.2992C202.224 84.4801 203.338 82.6317 204.453 80.8126C204.738 80.3431 203.995 79.8737 203.71 80.3725C202.595 82.1916 201.481 84.04 200.366 85.8591C200.623 85.9471 200.909 86.0058 201.166 86.0938C201.366 78.524 202.281 70.9836 203.852 63.5898C203.967 63.003 203.138 62.7683 203.024 63.3258Z" fill="black"/>
<path d="M204.167 97.0965C203.481 95.7761 203.024 94.3678 202.909 92.8714C202.824 91.8152 203.052 87.5315 204.995 89.2333C206.024 90.1428 205.881 92.1379 205.91 93.4583C205.91 94.0744 205.91 94.7199 205.853 95.336C205.824 95.7761 205.767 96.2162 205.681 96.627C204.938 97.1551 204.367 97.1258 203.995 96.5683C203.624 96.1576 202.995 96.7737 203.395 97.1845C204.624 98.4754 206.224 98.5341 206.567 96.5096C206.824 95.072 206.824 93.5463 206.71 92.1086C206.624 90.9643 206.624 89.3213 205.796 88.4411C204.567 87.1501 202.824 88.353 202.338 89.732C201.452 92.1966 202.309 95.3067 203.452 97.5366C203.681 98.0353 204.424 97.5952 204.167 97.0965Z" fill="black"/>
<path d="M210.082 70.6902C210.94 74.8271 216.226 75.1499 217.798 71.3356C217.998 70.8075 217.169 70.5728 216.969 71.1009C215.683 74.211 211.568 73.6242 210.911 70.4554C210.797 69.9273 209.968 70.1327 210.082 70.6902Z" fill="black"/>
<path d="M208.396 60.5091C209.482 58.0152 212.283 56.8122 214.855 57.3697C217.512 57.9565 219.541 60.069 220.856 62.3869C221.141 62.8857 221.884 62.4456 221.599 61.9468C220.084 59.2768 217.684 56.9003 214.597 56.4308C211.825 56.02 208.853 57.3697 207.653 60.0397C207.425 60.5971 208.168 61.0372 208.396 60.5091Z" fill="black"/>
<path d="M191.65 61.4774C192.422 59.8343 193.765 58.0446 195.736 58.0739C197.623 58.1032 198.994 59.805 199.937 61.3013C200.223 61.7708 200.966 61.3307 200.68 60.8612C199.594 59.0715 197.965 57.223 195.736 57.1937C193.45 57.1643 191.85 59.1008 190.935 61.0373C190.678 61.5361 191.421 61.9762 191.65 61.4774Z" fill="black"/>
<path d="M196.708 74.7685C197.213 74.7685 197.623 72.8375 197.623 70.4555C197.623 68.0735 197.213 66.1425 196.708 66.1425C196.203 66.1425 195.794 68.0735 195.794 70.4555C195.794 72.8375 196.203 74.7685 196.708 74.7685Z" fill="black"/>
<path d="M199.337 121.185C199.251 122.27 199.137 123.767 199.08 125.498C198.823 131.425 199.051 135.914 199.137 137.117C199.366 141.019 199.88 146.124 201.08 152.051C199.937 153.4 198.223 155.396 196.022 157.743C191.85 162.232 189.707 164.52 186.277 166.897C182.448 169.538 179.79 170.359 178.362 170.74C176.561 171.181 174.847 171.591 172.76 171.122C169.36 170.33 167.331 167.748 166.588 166.75C164.702 164.286 164.273 161.88 163.501 157.185C162.93 153.752 162.816 151.141 162.644 146.095C162.558 143.689 162.444 140.755 162.501 136.823C162.558 132.393 162.787 127.141 163.416 121.273C163.701 118.632 164.102 115.375 164.73 111.679C164.244 110.974 163.73 110.27 163.187 109.537C162.616 108.774 162.073 108.04 161.501 107.307C160.044 108.568 158.615 109.859 157.157 111.121C156.786 111.268 156.129 111.503 155.328 111.414C153.814 111.268 152.928 110.182 152.614 109.83C151.213 108.187 151.413 106.104 151.47 105.693C153.442 103.493 155.414 101.321 157.415 99.1209C157.443 97.8593 157.615 96.2162 158.1 94.3971C158.472 93.0475 158.929 91.9326 159.358 90.9937C159.729 90.2308 160.244 89.38 160.901 88.5291C162.073 86.9447 163.33 85.8298 164.359 85.0669C163.53 85.4484 163.33 85.4484 163.273 85.3897C163.13 85.155 164.473 83.4239 166.359 83.2478C167.417 83.1305 168.245 83.5412 168.817 83.8053C169.703 84.2454 170.303 84.8029 170.674 85.2136C172.446 83.6586 174.218 82.1036 175.99 80.5779C176.618 80.9593 177.247 81.3994 177.876 81.8395C179.333 82.8664 180.648 83.8933 181.819 84.8909C181.391 85.4484 180.848 86.0645 180.162 86.6807C179.019 87.7076 177.876 88.3237 176.99 88.7345C177.533 88.9105 178.504 89.3213 178.99 90.2895C179.476 91.2284 179.276 92.2553 178.99 93.5463C178.79 94.4265 178.533 95.1306 178.333 95.6001C178.447 96.8324 178.504 98.5048 178.161 100.383C177.619 103.463 176.361 105.752 175.504 107.072C175.475 108.216 175.447 110.006 175.504 112.207C175.732 121.273 177.018 126.583 177.847 133.273C178.333 137.087 178.819 142.75 178.676 149.88C179.333 149.439 180.276 148.735 181.334 147.826C184.02 145.508 185.734 143.19 187.992 139.787C190.221 136.471 191.678 134.006 193.65 130.72C194.879 128.579 196.851 125.322 199.337 121.185Z" fill="white"/>
<path opacity="0.24" d="M173.361 94.3971C172.76 95.7467 172.16 97.1257 171.56 98.5341C169.817 102.759 168.388 106.808 167.216 110.681C166.959 116.784 166.816 121.889 166.702 125.586C166.559 131.19 166.902 137.879 167.531 151.259C167.788 156.774 168.017 160.119 170.531 162.555C173.161 165.078 176.818 165.136 178.876 165.136C189.85 165.107 198.051 155.513 200.309 152.726C197.251 158.065 193.765 161.557 191.393 163.611C188.706 165.929 185.249 168.833 179.876 170.271C175.332 171.503 173.275 171.239 172.732 171.122C168.817 170.154 166.645 166.809 165.873 165.665C164.016 162.819 163.416 159.855 163.073 153.488C162.73 146.946 163.101 145.214 163.216 136.207C163.301 127.61 162.987 125.175 163.616 119.219C163.987 115.727 164.445 112.852 164.816 110.916C163.701 109.713 162.587 108.51 161.472 107.336C160.529 108.187 159.558 109.009 158.586 109.859C157.957 110.417 157.3 110.974 156.672 111.502C156.1 111.561 155.271 111.532 154.385 111.15C152.099 110.153 150.67 107.248 151.385 106.251C151.842 105.576 153.042 106.104 154.7 106.104C157.557 106.133 159.472 104.637 163.273 101.82C165.959 99.7957 169.045 97.5365 173.361 94.3971Z" fill="#9B9797"/>
<path d="M198.966 120.95C192.364 130.31 187.478 141.048 179.133 149.029C178.733 149.41 179.333 150.026 179.733 149.645C188.135 141.606 193.05 130.808 199.709 121.39C200.052 120.95 199.309 120.51 198.966 120.95Z" fill="black"/>
<path d="M174.389 171.797C185.706 171.034 193.822 161.293 200.623 153.019C200.966 152.579 200.366 151.963 200.023 152.403C193.422 160.501 185.42 170.183 174.418 170.946C173.846 170.946 173.846 171.826 174.389 171.797Z" fill="black"/>
<path d="M169.017 89.1453C169.074 91.4631 170.56 93.4583 172.732 94.1038C173.275 94.2505 173.503 93.3996 172.96 93.2529C171.16 92.7248 169.931 91.0524 169.874 89.1453C169.846 88.5878 168.988 88.5878 169.017 89.1453Z" fill="black"/>
<path d="M169.903 88.8812C170.189 86.3286 174.618 88.177 175.818 88.8225C176.99 89.4387 178.162 90.0548 178.419 91.5218C178.619 92.6368 178.276 93.8104 177.99 94.896C177.847 95.4534 178.676 95.6882 178.819 95.1307C179.219 93.6637 179.648 91.9913 179.047 90.5536C178.476 89.0866 176.904 88.4118 175.618 87.7663C174.304 87.1208 172.875 86.6514 171.389 86.8274C170.789 86.9154 170.017 87.0621 169.531 87.4729C169.017 87.8837 169.131 88.1771 169.045 88.9106C168.988 89.4387 169.846 89.4387 169.903 88.8812Z" fill="black"/>
<path d="M177.704 94.7199C177.619 96.9497 178.104 99.1209 177.59 101.351C177.104 103.405 176.132 105.312 175.161 107.16C174.904 107.659 175.647 108.099 175.904 107.6C176.904 105.664 177.904 103.698 178.419 101.585C178.962 99.297 178.476 97.0378 178.562 94.7199C178.59 94.1331 177.733 94.1331 177.704 94.7199Z" fill="black"/>
<path d="M175.161 107.189C174.504 122.652 178.819 137.791 178.133 153.254C178.104 153.811 178.962 153.811 178.99 153.254C179.676 137.791 175.361 122.652 176.018 107.189C176.047 106.632 175.189 106.632 175.161 107.189Z" fill="black"/>
<path d="M161.13 107.512C161.987 108.744 162.901 109.918 163.93 111.004C164.302 111.414 164.902 110.798 164.53 110.387C163.559 109.331 162.673 108.246 161.873 107.072C161.53 106.603 160.787 107.043 161.13 107.512Z" fill="black"/>
<path d="M164.416 110.769C162.787 120.305 161.987 129.987 162.016 139.669C162.044 144.481 162.273 149.322 162.73 154.105C163.101 158.183 163.559 162.467 165.645 166.046C167.531 169.303 170.846 171.767 174.618 171.679C175.161 171.65 175.161 170.77 174.618 170.799C169.331 170.946 165.931 166.105 164.702 161.352C163.33 156.129 163.216 150.437 163.016 145.068C162.587 133.684 163.359 122.241 165.273 111.033C165.33 110.446 164.502 110.212 164.416 110.769Z" fill="black"/>
<path d="M159.015 97.5952C156.329 99.9131 153.728 102.348 151.27 104.901C150.87 105.312 151.499 105.928 151.871 105.517C154.357 102.964 156.929 100.529 159.615 98.2113C160.044 97.8592 159.443 97.2431 159.015 97.5952Z" fill="black"/>
<path d="M151.013 105.693C150.585 109.097 153.099 111.972 156.443 111.943C156.986 111.943 156.986 111.062 156.443 111.062C153.557 111.092 151.499 108.598 151.871 105.693C151.956 105.136 151.099 105.136 151.013 105.693Z" fill="black"/>
<path d="M151.813 105.488C154.814 105.576 156.9 108.334 156.271 111.327C156.157 111.884 156.986 112.119 157.1 111.561C157.872 107.952 155.414 104.725 151.813 104.608C151.271 104.608 151.271 105.488 151.813 105.488Z" fill="black"/>
<path d="M157.443 111.415C160.701 108.363 164.016 105.341 167.188 102.202C168.645 100.764 170.046 99.297 171.36 97.7126C172.075 96.8617 173.875 95.1893 173.904 94.0157C173.904 93.869 173.818 93.693 173.703 93.6343C173.646 93.605 173.589 93.5756 173.561 93.5756C173.389 93.4876 173.16 93.4876 173.046 93.6343C173.018 93.6637 172.989 93.693 172.96 93.7517C172.618 94.1918 173.218 94.8079 173.561 94.3678C173.589 94.3385 173.618 94.3091 173.646 94.2505C173.475 94.2798 173.303 94.3091 173.132 94.3091C173.075 94.0451 172.989 94.0451 172.875 94.3385C172.732 94.5439 172.589 94.7492 172.417 94.9546C172.075 95.3947 171.76 95.8348 171.389 96.2749C170.817 97.0084 170.188 97.7126 169.588 98.4168C168.331 99.8251 167.016 101.145 165.673 102.436C162.758 105.253 159.786 107.982 156.843 110.769C156.414 111.18 157.043 111.796 157.443 111.415Z" fill="black"/>
<path d="M157.815 99.2382C158.015 97.8299 158.215 96.4216 158.415 95.0132C158.558 93.957 158.672 92.7834 159.243 91.8445C160.558 89.6733 162.416 91.2283 163.416 92.6954C163.844 93.3115 164.244 93.9863 164.673 94.6025C164.902 94.9546 166.016 96.2162 165.873 96.6563C166.016 96.5389 166.159 96.4509 166.273 96.3335C166.216 96.3335 166.188 96.3335 166.131 96.3335C165.588 96.3042 165.588 97.1844 166.131 97.2138C166.188 97.2138 166.216 97.2138 166.273 97.2138C166.473 97.2138 166.645 97.0671 166.674 96.891C166.874 96.1575 166.388 95.7174 166.016 95.1306C165.302 94.045 164.616 92.9301 163.873 91.8738C163.101 90.7882 162.101 89.732 160.672 89.8787C159.301 90.0254 158.472 91.111 158.043 92.3726C157.329 94.4558 157.272 96.8323 156.957 99.0035C156.9 99.561 157.729 99.7957 157.815 99.2382Z" fill="black"/>
<path d="M159.158 95.923C159.929 97.478 161.215 99.0624 163.044 99.1797C164.559 99.2971 165.988 98.4169 166.388 96.8912C166.531 96.3337 165.702 96.099 165.559 96.6565C165.188 98.0648 163.673 98.5929 162.416 98.1528C161.215 97.7127 160.444 96.6271 159.901 95.5122C159.644 94.9841 158.901 95.4242 159.158 95.923Z" fill="black"/>
<path d="M160.215 90.2016C160.358 88.7639 161.958 88.3825 163.044 88.7639C164.187 89.1453 165.073 90.2016 165.873 91.0524C166.502 91.7273 167.731 92.6661 167.902 93.605C168.131 94.8667 166.588 95.7175 165.559 96.0403C165.045 96.187 165.245 97.0378 165.788 96.8911C167.045 96.5097 168.874 95.3654 169.074 93.8398C169.16 93.2236 168.788 92.9009 168.388 92.4608C167.588 91.5806 166.816 90.7297 165.988 89.8788C164.873 88.7052 163.444 87.4436 161.73 87.737C160.444 87.9424 159.501 88.8226 159.358 90.1722C159.301 90.759 160.158 90.759 160.215 90.2016Z" fill="black"/>
<path d="M161.758 88.0303C162.158 87.5609 162.358 86.9448 162.73 86.4753C163.644 85.3017 165.073 86.3873 166.016 87.0915C167.845 88.4118 169.788 90.8177 168.131 93.1062C167.817 93.5757 168.56 94.0158 168.874 93.5463C170.646 91.0817 168.903 88.2357 166.874 86.6514C165.931 85.9178 164.502 84.5975 163.216 84.979C162.073 85.3017 161.873 86.6514 161.158 87.4435C160.787 87.825 161.387 88.4411 161.758 88.0303Z" fill="black"/>
<path d="M164.645 85.3603C165.645 84.0987 166.959 82.7784 168.502 84.0987C169.531 84.9496 170.188 86.1525 170.56 87.4141C170.731 87.9423 171.532 87.7369 171.389 87.1794C170.903 85.4777 169.788 83.5119 168.131 82.8077C166.445 82.1035 165.045 83.4825 164.044 84.7442C163.701 85.1549 164.302 85.8004 164.645 85.3603Z" fill="black"/>
<path d="M170.96 85.4777C172.732 83.9227 174.504 82.3676 176.275 80.8419C176.704 80.4605 176.075 79.8444 175.675 80.2258C173.904 81.7808 172.132 83.3359 170.36 84.8616C169.931 85.243 170.56 85.8591 170.96 85.4777Z" fill="black"/>
<path d="M177.276 89.2333C178.962 87.9716 180.591 86.622 182.105 85.155C182.505 84.7736 181.905 84.1574 181.505 84.5388C180.019 85.9472 178.476 87.2675 176.847 88.4704C176.39 88.7932 176.818 89.556 177.276 89.2333Z" fill="black"/>
<path d="M190.107 87.0328C199.639 87.0328 207.367 79.0986 207.367 69.3112C207.367 59.5239 199.639 51.5897 190.107 51.5897C180.574 51.5897 172.846 59.5239 172.846 69.3112C172.846 79.0986 180.574 87.0328 190.107 87.0328Z" stroke="black" stroke-width="3" stroke-miterlimit="10"/>
<path d="M179.648 71.4824C185.992 67.3161 192.479 63.3845 199.109 59.6876C199.594 59.4235 199.166 58.6607 198.68 58.9247C192.05 62.5923 185.563 66.5239 179.219 70.7195C178.762 71.0423 179.19 71.8051 179.648 71.4824Z" fill="black"/>
<path d="M180.362 79.1695C185.592 75.2379 190.878 71.453 196.279 67.7562C196.737 67.4334 196.308 66.6706 195.851 66.9933C190.478 70.6902 185.163 74.5044 179.933 78.4067C179.476 78.7294 179.905 79.4923 180.362 79.1695Z" fill="black"/>
</g>
<defs>
<clipPath id="clip0_2_1323">
<rect width="347" height="323" fill="white"/>
</clipPath>
</defs>
</svg>
